Coordinates
version=1
nRows=16
nColumns=36
inDegrees=yes

Units are S.I. units (second, meters, Newtons, ...)
If the header above contains a line with 'inDegrees', this indicates whether rotational values are in degrees (yes) or radians (no).

endheader
time	pelvis_tilt	pelvis_list	pelvis_rotation	pelvis_tx	pelvis_ty	pelvis_tz	hip_flexion_r	hip_adduction_r	hip_rotation_r	knee_angle_r	knee_angle_r_beta	ankle_angle_r	subtalar_angle_r	mtp_angle_r	hip_flexion_l	hip_adduction_l	hip_rotation_l	knee_angle_l	knee_angle_l_beta	ankle_angle_l	subtalar_angle_l	mtp_angle_l	lumbar_extension	lumbar_bending	lumbar_rotation	arm_flex_r	arm_add_r	arm_rot_r	elbow_flex_r	pro_sup_r	arm_flex_l	arm_add_l	arm_rot_l	elbow_flex_l	pro_sup_l
      0.00000000	     -2.54539692	     -0.14948153	      8.80960638	      0.00701057	      1.21984728	      0.12540832	      0.36920228	      0.81482145	     -5.92470607	      6.74163603	      0.11766375	     14.04328080	     -6.96162193	     -6.67869297	     -0.81972183	     -2.42868780	     -2.64501363	      3.24689025	      0.05666893	      6.01213048	     -5.57447286	     -6.67869297	     -6.66967827	      1.43955579	     -3.26815015	      1.09401897	    -11.87692193	      7.40945834	     26.98170395	     77.40324309	      3.68477677	    -11.71988587	     10.65997031	     29.32752150	     73.04002972
      0.01666670	     -4.66847034	     -0.49303329	      8.15961538	      0.01011144	      1.22002472	      0.12463696	      3.03771284	      1.02830636	     -5.65292838	      7.01279942	      0.12239644	     15.85507864	     -5.28822376	     -6.81751303	      1.36189644	     -2.05296399	     -4.05285866	      2.84471282	      0.04964961	      6.17927602	     -4.05884245	     -6.81751303	     -3.62092556	      1.73100730	     -2.99854255	      0.96985051	    -11.55765875	      4.62073006	     25.90351660	     75.67881308	      3.21123467	    -10.61902300	      8.03473737	     28.38689060	     72.02337435
      0.03333330	     -5.10281806	      0.02209082	      7.65425292	      0.00935113	      1.21986908	      0.12543761	      3.06080990	      0.47641002	     -6.29001094	      6.36802382	      0.11114298	     15.72202474	     -5.01470156	     -7.13399438	      1.58967847	     -1.55326053	     -5.59285285	      2.60920679	      0.04553925	      6.38845326	     -2.91452409	     -7.13399438	     -3.13082093	      0.96515218	     -2.43307287	      0.44350335	    -10.76486854	     -0.80523836	     27.13682923	     78.02313934	      3.26956691	    -10.39532416	      5.73266747	     28.29204897	     77.06889422
      0.05000000	     -5.16282907	      0.36006589	      7.17532408	      0.00706699	      1.22150678	      0.12645361	      3.04941327	      0.08605406	     -6.54188572	      6.17932960	      0.10784965	     15.81460194	     -4.70035572	     -7.30063115	      1.41095818	     -1.09283770	     -6.40435509	      1.85316693	      0.03234386	      6.65946243	     -1.85391326	     -7.30063115	     -3.35674025	      0.54370538	     -2.22291582	      0.56583851	    -10.42194641	     -2.78583733	     27.94892796	     72.68881965	      3.17281690	    -10.23447711	      3.71546465	     28.73598451	     72.12994388
      0.06666670	     -5.21479551	      0.52117009	      6.97727757	      0.00702595	      1.22226621	      0.12718766	      3.14504120	     -0.01922157	     -6.34315734	      5.93223078	      0.10353696	     15.93564001	     -4.74079686	     -7.42496096	      1.40179559	     -0.83671389	     -6.90594953	      1.38042369	      0.02409294	      6.88374938	     -1.08155590	     -7.42496096	     -3.54828132	      0.40712799	     -1.79353447	      0.31108015	    -10.42439429	     -3.46732087	     29.10309951	     74.75045913	      3.54750261	    -10.42297861	      4.00511107	     28.82191548	     74.19650376
      0.08333330	     -5.23096802	      0.58328434	      6.83658755	      0.00570698	      1.22195587	      0.12755178	      3.11748293	     -0.07095900	     -6.38539284	      5.96629038	      0.10413141	     15.77477586	     -4.84379752	     -7.47700561	      1.42254712	     -0.72090138	     -7.06125546	      1.26743800	      0.02212097	      6.83126318	     -0.86099800	     -7.47700561	     -3.76675871	      0.43587408	     -1.67817090	      0.29565655	     -9.88734743	     -7.28306183	     30.15943811	     80.50492753	      3.40388204	     -9.87594839	     -0.50819276	     29.71261277	     79.14973571
      0.10000000	     -5.32995410	      0.64269999	      6.72360882	      0.00426723	      1.22235847	      0.12773809	      3.37107251	     -0.11981771	     -6.26458875	      6.11319885	      0.10669545	     15.74281476	     -4.98028560	     -7.48805743	      1.56875002	     -0.61411595	     -7.15247799	      1.26204651	      0.02202687	      6.90698511	     -0.61516902	     -7.48805743	     -3.76684851	      0.40318634	     -1.41323657	      0.48719935	    -10.10450283	     -5.68896185	     30.43217248	     77.01138537	      3.64926230	    -10.03199287	      0.33293139	     30.04065720	     75.72921207
      0.11666670	     -5.41540957	      0.67762593	      6.73915805	      0.00387836	      1.22204115	      0.12773277	      3.56797854	     -0.16570625	     -6.19460484	      6.12103314	      0.10683218	     15.63015549	     -4.92427050	     -7.49611741	      1.68047201	     -0.56927005	     -7.00746022	      1.31464766	      0.02294493	      6.82833172	     -0.60426918	     -7.49611741	     -3.77169551	      0.40371944	     -1.32750855	      0.63098228	     -9.92284599	     -6.86933606	     30.80666082	     80.72953079	      3.69991800	     -9.82212747	     -1.35171275	     30.56484146	     79.07034110
      0.13333330	     -5.44702438	      0.66554858	      6.72880789	      0.00320059	      1.22275399	      0.12755244	      3.69667853	     -0.18589370	     -6.23865152	      6.15601044	      0.10744265	     15.53891658	     -4.84946147	     -7.49884814	      1.76184681	     -0.56936451	     -6.80832892	      1.38437598	      0.02416192	      6.85402201	     -0.53891822	     -7.49884814	     -3.81951438	      0.51003902	     -1.29185265	      0.95027424	    -10.29386393	     -4.43775296	     30.93150100	     75.98315671	      3.83929522	    -10.08120315	      0.68407718	     30.89721753	     74.37296508
      0.15000000	     -5.53929303	      0.67237733	      6.61595814	      0.00204558	      1.22262214	      0.12771584	      3.91900904	     -0.19107492	     -6.00538323	      6.14750315	      0.10729417	     15.28041379	     -5.12247298	     -7.49970461	      1.94725832	     -0.56963713	     -6.83917775	      1.43709184	      0.02508198	      6.75756475	     -0.43474068	     -7.49970461	     -3.87589470	      0.50241981	     -1.15750921	      1.12209233	     -9.98089229	     -6.38196042	     31.27604707	     81.32604695	      3.90241736	     -9.78813088	     -1.32846116	     31.30085352	     79.26271172
      0.16666670	     -5.57725996	      0.60367162	      6.57790350	      0.00214164	      1.22267762	      0.12768473	      4.02021478	     -0.11997825	     -5.94939120	      6.14671719	      0.10728045	     15.08715239	     -5.17848096	     -7.49991014	      2.06091375	     -0.64722878	     -6.77671173	      1.48790977	      0.02596892	      6.79948516	     -0.39359365	     -7.49991014	     -3.93679027	      0.64487885	     -1.06442855	      1.29099380	     -9.99488058	     -6.42461991	     31.54024409	     81.71144104	      4.02861429	     -9.75114121	     -1.11541247	     31.46117256	     79.76818213
      0.18333330	     -5.56542713	      0.55828392	      6.49235968	      0.00197646	      1.22166364	      0.12750951	      3.99920410	     -0.09298881	     -6.01908138	      6.22708096	      0.10868307	     14.81800321	     -5.51361558	     -7.49997019	      2.13612114	     -0.71507771	     -6.81688694	      1.54795674	      0.02701694	      6.80334003	     -0.32550074	     -7.49997019	     -4.05922555	      0.75374124	     -1.10155024	      1.54875994	    -10.05358990	     -6.13869681	     31.74208219	     82.11885872	      3.96279055	     -9.73874133	     -1.10752497	     31.69356416	     80.15809854
      0.20000000	     -5.64762160	      0.51192688	      6.47641332	      0.00181184	      1.22162875	      0.12797558	      4.15734119	     -0.02058321	     -5.97504731	      6.28691892	      0.10972743	     14.65591070	     -5.74780542	     -7.49998170	      2.24796735	     -0.77193277	     -6.75859803	      1.59172429	      0.02778083	      6.69561177	     -0.47135407	     -7.49998170	     -4.03165513	      0.81837253	     -1.00604403	      1.73250605	    -10.23493015	     -4.94788769	     31.79362613	     79.87714259	      4.08754116	     -9.87782416	      0.09291138	     31.78167535	     78.09727831
      0.21666670	     -5.68064241	      0.45167888	      6.55786090	      0.00144662	      1.22329782	      0.12773741	      4.14562810	      0.03539172	     -6.19426334	      6.20671682	      0.10832764	     14.45924736	     -5.85296686	     -7.49999032	      2.32574749	     -0.85746621	     -6.63178894	      1.63080618	      0.02846294	      6.44918235	     -0.51878935	     -7.49999032	     -4.08470706	      0.91820562	     -1.06399742	      1.86544312	    -10.13390005	     -5.46859578	     32.00837111	     81.69623110	      4.07562113	     -9.78699835	     -0.24410202	     31.94285056	     79.90022214
      0.23333330	     -5.81242788	      0.43980405	      6.53112990	      0.00166020	      1.22253393	      0.12783230	      4.29739097	      0.05447653	     -6.08490749	      6.17457769	      0.10776671	     14.18048800	     -6.15959730	     -7.49999239	      2.47214761	     -0.88681970	     -6.90538021	      1.65241353	      0.02884006	      6.49697010	     -0.17243859	     -7.49999239	     -3.97096950	      0.93929815	     -1.00998553	      1.99812085	    -10.09477140	     -5.30613746	     32.01635202	     79.71505857	      4.12017377	     -9.74397914	     -0.08100945	     31.75107757	     78.09403840
      0.25000000	     -5.85890437	      0.40342269	      6.61681367	      0.00222428	      1.22282173	      0.12793447	      4.30184467	      0.08627905	     -6.42875047	      6.11682404	      0.10675872	     14.18048739	     -5.86230799	     -7.49999667	      2.50356949	     -0.93468182	     -6.79681024	      1.61231495	      0.02814020	      6.21026132	     -0.40437413	     -7.49999667	     -3.91251964	      0.96540699	     -1.04949250	      2.15119962	    -10.07718088	     -4.30421991	     31.90003607	     72.78653604	      4.17693936	     -9.71508254	      0.79002650	     31.68711118	     71.54907754
